<svg width="408" height="126" xmlns="http://www.w3.org/2000/svg" xmlns:xlink="http://www.w3.org/1999/xlink"><use xlink:href="#path0_fill" transform="translate(21.11 67.19)"/><use xlink:href="#path1_fill" transform="translate(25.81 56.08)" fill="#FF3B5C"/><use xlink:href="#path2_fill" transform="translate(23.07 55.49)" fill="#FF3B5C"/><use xlink:href="#path3_fill" transform="translate(16.67 55.64)" fill="#FF3B5C"/><use xlink:href="#path4_fill" transform="translate(28.62 51.41)" fill="#AF7E43"/><use xlink:href="#path5_fill" transform="translate(29.87 51.11)"/><use xlink:href="#path6_fill" transform="translate(4.26 55.14)" fill="#A9C6FF"/><use xlink:href="#path7_fill" transform="translate(17.55 62.65)" fill="#76A3FF"/><use xlink:href="#path8_fill" transform="translate(4.26 62.65)" fill="#668CFF"/><use xlink:href="#path9_fill" transform="translate(14.8 64.84)" fill="url(#paint9_linear)"/><use xlink:href="#path10_fill" transform="translate(14.81 63.28)" fill="#A9C6FF"/><use xlink:href="#path11_fill" transform="translate(14.8 57.4)" fill="url(#paint11_linear)"/><use xlink:href="#path10_fill" transform="translate(14.81 55.84)" fill="#A9C6FF"/><use xlink:href="#path12_fill" transform="translate(8.15 61.1)" fill="url(#paint13_linear)"/><use xlink:href="#path10_fill" transform="translate(8.16 59.54)" fill="#A9C6FF"/><use xlink:href="#path9_fill" transform="translate(21.44 61.1)" fill="url(#paint15_linear)"/><use xlink:href="#path10_fill" transform="translate(21.45 59.54)" fill="#A9C6FF"/><use xlink:href="#path13_fill" transform="translate(3.9 75.51)"/><use xlink:href="#path14_fill" transform="translate(2.67 65.21)" fill="#FF8600"/><use xlink:href="#path15_fill" transform="translate(3.21 64.28)" fill="#FF8600"/><use xlink:href="#path16_fill" transform="translate(5.1 66.23)" fill="#FF8600"/><use xlink:href="#path17_fill" transform="translate(.98 60.38)" fill="#FFC400"/><use xlink:href="#path18_fill" transform="translate(0 59.68)"/><g><use xlink:href="#path6_fill" transform="translate(44.2 37.48)" fill="#FF3B5C"/><use xlink:href="#path7_fill" transform="translate(57.49 44.99)" fill="#D82B50"/><use xlink:href="#path8_fill" transform="translate(44.2 44.99)" fill="#B21942"/><use xlink:href="#path9_fill" transform="translate(54.75 47.18)" fill="url(#paint26_linear)"/><use xlink:href="#path10_fill" transform="translate(54.75 45.62)" fill="#FF3B5C"/><use xlink:href="#path9_fill" transform="translate(54.75 39.73)" fill="url(#paint28_linear)"/><use xlink:href="#path10_fill" transform="translate(54.75 38.18)" fill="#FF3B5C"/><use xlink:href="#path12_fill" transform="translate(48.09 43.44)" fill="url(#paint30_linear)"/><use xlink:href="#path10_fill" transform="translate(48.1 41.88)" fill="#FF3B5C"/><use xlink:href="#path9_fill" transform="translate(61.38 43.44)" fill="url(#paint32_linear)"/><use xlink:href="#path10_fill" transform="translate(61.39 41.88)" fill="#FF3B5C"/><use xlink:href="#path19_fill" transform="translate(57.49 44.99)" fill="#FFE200"/><use xlink:href="#path20_fill" transform="translate(70.79 52.5)" fill="#FFC400"/><use xlink:href="#path21_fill" transform="translate(57.49 52.5)" fill="#FF8600"/><use xlink:href="#path22_fill" transform="translate(68.02 46.85)" fill="url(#paint37_linear)"/><use xlink:href="#path10_fill" transform="translate(68.04 45.3)" fill="#38FFA1"/><use xlink:href="#path23_fill" transform="translate(61.39 50.69)" fill="url(#paint39_linear)"/><use xlink:href="#path10_fill" transform="translate(61.39 49.13)" fill="#38FFA1"/><use xlink:href="#path24_fill" transform="translate(50.84 32.01)" fill="#A9C6FF"/><use xlink:href="#path25_fill" transform="translate(64.13 39.53)" fill="#76A3FF"/><use xlink:href="#path26_fill" transform="translate(50.84 39.53)" fill="#668CFF"/><use xlink:href="#path9_fill" transform="translate(61.38 41.71)" fill="url(#paint44_linear)"/><use xlink:href="#path10_fill" transform="translate(61.39 40.15)" fill="#A9C6FF"/><use xlink:href="#path9_fill" transform="translate(61.38 34.26)" fill="url(#paint46_linear)"/><use xlink:href="#path10_fill" transform="translate(61.39 32.71)" fill="#A9C6FF"/><use xlink:href="#path9_fill" transform="translate(54.74 37.97)" fill="url(#paint48_linear)"/><use xlink:href="#path10_fill" transform="translate(54.74 36.43)" fill="#A9C6FF"/><use xlink:href="#path12_fill" transform="translate(68.02 37.97)" fill="url(#paint50_linear)"/><use xlink:href="#path10_fill" transform="translate(68.03 36.43)" fill="#A9C6FF"/><use xlink:href="#path27_fill" transform="translate(68.02 54.67)" fill="url(#paint52_linear)"/><use xlink:href="#path28_fill" transform="translate(68.04 53.13)" fill="#FFE200"/><use xlink:href="#path29_fill" transform="translate(74.68 51.06)" fill="url(#paint54_linear)"/><use xlink:href="#path10_fill" transform="translate(74.68 49.39)" fill="#FFE200"/></g><g><use xlink:href="#path30_fill" transform="translate(178.46 48.31)" fill="#E5E4DF"/><use xlink:href="#path31_fill" transform="translate(178.4 14.15)" fill="#EFEEE8"/><use xlink:href="#path32_fill" transform="translate(181.64 40.13)" fill="#FF8600"/><use xlink:href="#path33_fill" transform="translate(191.27 35.15)" fill="#FFE200"/><use xlink:href="#path34_fill" transform="translate(195.62 8.84)" fill="#EFEEE8"/><use xlink:href="#path35_fill" transform="translate(181.64 48.72)" fill="#FFC400"/><use xlink:href="#path36_fill" transform="translate(194.28 12.83)" fill="#E5E4DF"/><use xlink:href="#path37_fill" transform="translate(195.4 17.32)" fill="#E5E4DF"/><use xlink:href="#path36_fill" transform="translate(194.28 12.83)" fill="#EFEEE8"/><use xlink:href="#path38_fill" transform="translate(194.28 8.08)" fill="#FFF"/><use xlink:href="#path39_fill" transform="translate(222.89 .1)" fill="#E5E4DF"/><use xlink:href="#path40_fill" transform="translate(226.07 43.39)" fill="#B21942"/><use xlink:href="#path41_fill" transform="translate(226.07 28.7)" fill="#FF3B5C"/><use xlink:href="#path42_fill" transform="translate(226.07 64.23)" fill="#D82B50"/><use xlink:href="#path43_stroke" transform="translate(264.86 76.41)" fill="#FFF"/><use xlink:href="#path44_stroke" transform="translate(264.86 70.78)" fill="#FFF"/><use xlink:href="#path43_stroke" transform="translate(264.86 65.16)" fill="#FFF"/><use xlink:href="#path43_stroke" transform="translate(264.86 59.54)" fill="#FFF"/><use xlink:href="#path43_stroke" transform="translate(264.86 53.91)" fill="#FFF"/><use xlink:href="#path43_stroke" transform="translate(264.86 48.28)" fill="#FFF"/><use xlink:href="#path43_stroke" transform="translate(264.86 42.66)" fill="#FFF"/><use xlink:href="#path45_fill" transform="translate(222.89 .11)" fill="#FFF"/><use xlink:href="#path46_stroke" transform="translate(278.42 17.43)"/><use xlink:href="#path47_stroke" transform="translate(270.24 22.04)"/><use xlink:href="#path48_stroke" transform="translate(290.23 106.98)"/><use xlink:href="#path48_stroke" transform="translate(289.37 103.09)"/><use xlink:href="#path49_stroke" transform="translate(288.49 99.2)"/><use xlink:href="#path50_stroke" transform="translate(287.62 95.31)"/><use xlink:href="#path48_stroke" transform="translate(286.76 91.41)"/><use xlink:href="#path51_stroke" transform="translate(285.88 87.52)"/><use xlink:href="#path48_stroke" transform="translate(285.02 83.62)"/><use xlink:href="#path48_stroke" transform="translate(284.15 79.73)"/><use xlink:href="#path50_stroke" transform="translate(283.28 75.84)"/><use xlink:href="#path49_stroke" transform="translate(282.41 71.94)"/><use xlink:href="#path48_stroke" transform="translate(281.54 68.05)"/><use xlink:href="#path48_stroke" transform="translate(280.67 64.15)"/><use xlink:href="#path51_stroke" transform="translate(279.8 60.26)"/><use xlink:href="#path50_stroke" transform="translate(278.93 56.37)"/><use xlink:href="#path50_stroke" transform="translate(278.06 52.47)"/><use xlink:href="#path49_stroke" transform="translate(277.19 48.58)"/><use xlink:href="#path48_stroke" transform="translate(276.32 44.68)"/><use xlink:href="#path48_stroke" transform="translate(275.45 40.79)"/><use xlink:href="#path48_stroke" transform="translate(274.59 36.9)"/><use xlink:href="#path49_stroke" transform="translate(273.71 33)"/><use xlink:href="#path50_stroke" transform="translate(272.85 29.11)"/><use xlink:href="#path48_stroke" transform="translate(271.98 25.21)"/><use xlink:href="#path51_stroke" transform="translate(271.11 21.32)"/><use xlink:href="#path52_fill" transform="translate(276.56 35.3)"/><use xlink:href="#path53_fill" transform="translate(274.63 22.69)" fill="#FF8600"/><use xlink:href="#path54_fill" transform="translate(280.05 24.24)" fill="#FF8600"/><use xlink:href="#path55_fill" transform="translate(273.39 25.87)" fill="#FF8600"/><use xlink:href="#path56_fill" transform="translate(285.18 21.17)" fill="#4A71D3"/><use xlink:href="#path57_fill" transform="translate(284.82 20.36)"/></g><g><use xlink:href="#path58_fill" transform="translate(330.9)" fill="#8C8C8C"/><use xlink:href="#path59_fill" transform="translate(332.37 57)" fill="#2ABC85"/><use xlink:href="#path60_fill" transform="translate(330.18 1.28)"/><use xlink:href="#path61_fill" transform="translate(330.2 1.26)" fill="#494949"/><use xlink:href="#path62_fill" transform="translate(343.62 10.94)" fill="#36F49A"/><use xlink:href="#path62_fill" transform="translate(338.64 8.14)" fill="#FFC400"/><use xlink:href="#path62_fill" transform="translate(333.67 5.34)" fill="#FF3B5C"/><use xlink:href="#path63_fill" transform="translate(374.84 52.68)" fill="#38FFA1"/><use xlink:href="#path64_fill" transform="translate(346.76 31.14)" fill="#38FFA1"/><use xlink:href="#path65_fill" transform="translate(359.89 59.56)" fill="#38FFA1"/><use xlink:href="#path66_fill" transform="translate(321.73 74.69)"/><use xlink:href="#path67_fill" transform="translate(318.89 64.98)" fill="#FF3B5C"/><use xlink:href="#path68_fill" transform="translate(321.59 64.19)" fill="#FF3B5C"/><use xlink:href="#path69_fill" transform="translate(323.99 65.09)" fill="#FF3B5C"/><use xlink:href="#path70_fill" transform="translate(319.83 60.55)" fill="#AF7E43"/><use xlink:href="#path71_fill" transform="translate(318.92 59.9)"/><use xlink:href="#path72_fill" transform="translate(366.04 101.1)"/><use xlink:href="#path73_fill" transform="translate(366.59 88.78)" fill="#FFC400"/><use xlink:href="#path74_fill" transform="translate(363.57 89.51)" fill="#FFC400"/><use xlink:href="#path75_fill" transform="translate(369.66 89.51)" fill="#FFC400"/><use xlink:href="#path76_fill" transform="translate(367.12 85.57)"/></g><g><use xlink:href="#path77_fill" transform="translate(179.72 77.75)"/><use xlink:href="#path78_fill" transform="translate(184.36 66.91)" fill="#FF3B5C"/><use xlink:href="#path79_fill" transform="translate(181.64 66.35)" fill="#FF3B5C"/><use xlink:href="#path80_fill" transform="translate(175.36 66.49)" fill="#FF3B5C"/><use xlink:href="#path81_fill" transform="translate(187.07 62.35)" fill="#4A71D3"/><use xlink:href="#path82_fill" transform="translate(188.3 61.59)"/><use xlink:href="#path83_fill" transform="translate(152.85 65.66)" fill="#27E38C"/><use xlink:href="#path84_fill" transform="translate(156.03 46.77)"/><use xlink:href="#path85_fill" transform="translate(160.67 35.93)" fill="#36F49A"/><use xlink:href="#path86_fill" transform="translate(157.95 35.36)" fill="#36F49A"/><use xlink:href="#path87_fill" transform="translate(151.7 35.5)" fill="#36F49A"/><use xlink:href="#path88_fill" transform="translate(163.39 31.36)" fill="#FFC400"/><use xlink:href="#path89_fill" transform="translate(164.62 31.08)"/><use xlink:href="#path90_fill" transform="translate(107.36 55.08)" fill="#EFEEE8"/><use xlink:href="#path91_fill" transform="translate(107.35 39.33)" fill="#FFF"/><use xlink:href="#path92_fill" transform="translate(110.79 42.19)" fill="#EFEEE8"/><use xlink:href="#path93_fill" transform="translate(113.15 43.95)" fill="#FFF"/><use xlink:href="#path94_fill" transform="translate(154.08 66.19)" fill="#EFEEE8"/><use xlink:href="#path95_fill" transform="translate(159.15 68.25)" fill="#060807"/><use xlink:href="#path96_fill" transform="translate(189.56 85.49)" fill="#323031"/><use xlink:href="#path97_fill" transform="translate(106.26 70.19)"/><use xlink:href="#path98_fill" transform="translate(105.05 60.14)" fill="#668CFF"/><use xlink:href="#path99_fill" transform="translate(105.59 59.24)" fill="#668CFF"/><use xlink:href="#path100_fill" transform="translate(107.43 61.13)" fill="#668CFF"/><use xlink:href="#path101_fill" transform="translate(103.4 55.43)" fill="#AF7E43"/><use xlink:href="#path102_fill" transform="translate(102.44 54.76)"/><use xlink:href="#path103_fill" transform="translate(128.42 73.17)"/><use xlink:href="#path104_fill" transform="translate(128.98 60.34)" fill="#FFC400"/><use xlink:href="#path105_fill" transform="translate(124.57 61.07)" fill="#FFC400"/><use xlink:href="#path106_fill" transform="translate(132.17 61.06)" fill="#FFC400"/><use xlink:href="#path107_fill" transform="translate(129.18 56.96)" fill="#FF3B5C"/></g><defs><linearGradient id="paint9_linear" x2="1" gradientUnits="userSpaceOnUse" gradientTransform="matrix(66.9619 0 0 37.7442 123142 407.457)"><stop offset="0" stop-color="#668CFF"/><stop offset="1" stop-color="#92B1FF"/></linearGradient><linearGradient id="paint11_linear" x2="1" gradientUnits="userSpaceOnUse" gradientTransform="matrix(66.9619 0 0 37.906 123142 356.865)"><stop offset="0" stop-color="#668CFF"/><stop offset="1" stop-color="#92B1FF"/></linearGradient><linearGradient id="paint13_linear" x2="1" gradientUnits="userSpaceOnUse" gradientTransform="matrix(67.0169 0 0 37.7131 123264 381.291)"><stop offset="0" stop-color="#668CFF"/><stop offset="1" stop-color="#92B1FF"/></linearGradient><linearGradient id="paint15_linear" x2="1" gradientUnits="userSpaceOnUse" gradientTransform="matrix(66.9619 0 0 37.7442 123223 381.291)"><stop offset="0" stop-color="#668CFF"/><stop offset="1" stop-color="#92B1FF"/></linearGradient><linearGradient id="paint26_linear" x2="1" gradientUnits="userSpaceOnUse" gradientTransform="matrix(5.50673 0 0 3.10396 0 1.552)"><stop offset="0" stop-color="#B21942"/><stop offset="1" stop-color="#D82B50"/></linearGradient><linearGradient id="paint28_linear" x2="1" gradientUnits="userSpaceOnUse" gradientTransform="matrix(66.9619 0 0 37.7442 123142 64.904)"><stop offset="0" stop-color="#B21942"/><stop offset="1" stop-color="#D82B50"/></linearGradient><linearGradient id="paint30_linear" x2="1" gradientUnits="userSpaceOnUse" gradientTransform="matrix(67.0169 0 0 37.7131 123264 90.853)"><stop offset="0" stop-color="#B21942"/><stop offset="1" stop-color="#D82B50"/></linearGradient><linearGradient id="paint32_linear" x2="1" gradientUnits="userSpaceOnUse" gradientTransform="matrix(66.9619 0 0 37.7442 123223 90.853)"><stop offset="0" stop-color="#B21942"/><stop offset="1" stop-color="#D82B50"/></linearGradient><linearGradient id="paint37_linear" x2="1" gradientUnits="userSpaceOnUse" gradientTransform="matrix(5.50673 0 0 3.35017 .018 1.685)"><stop offset="0" stop-color="#2DD78C"/><stop offset="1" stop-color="#31E994"/></linearGradient><linearGradient id="paint39_linear" x2="1" gradientUnits="userSpaceOnUse" gradientTransform="matrix(66.9068 0 0 40.9462 123223 154.719)"><stop offset="0" stop-color="#2DD78C"/><stop offset="1" stop-color="#31E994"/></linearGradient><linearGradient id="paint44_linear" x2="1" gradientUnits="userSpaceOnUse" gradientTransform="matrix(5.50673 0 0 3.10396 0 1.552)"><stop offset="0" stop-color="#668CFF"/><stop offset="1" stop-color="#92B1FF"/></linearGradient><linearGradient id="paint46_linear" x2="1" gradientUnits="userSpaceOnUse" gradientTransform="matrix(66.9619 0 0 37.7442 123223 26.632)"><stop offset="0" stop-color="#668CFF"/><stop offset="1" stop-color="#92B1FF"/></linearGradient><linearGradient id="paint48_linear" x2="1" gradientUnits="userSpaceOnUse" gradientTransform="matrix(66.9619 0 0 37.7442 123142 52.581)"><stop offset="0" stop-color="#668CFF"/><stop offset="1" stop-color="#92B1FF"/></linearGradient><linearGradient id="paint50_linear" x2="1" gradientUnits="userSpaceOnUse" gradientTransform="matrix(67.0169 0 0 37.7131 123507 52.581)"><stop offset="0" stop-color="#668CFF"/><stop offset="1" stop-color="#92B1FF"/></linearGradient><linearGradient id="paint52_linear" x2="1" gradientUnits="userSpaceOnUse" gradientTransform="matrix(5.50673 0 0 3.11589 .018 1.561)"><stop offset="0" stop-color="#FF8600"/><stop offset="1" stop-color="#FFC400"/></linearGradient><linearGradient id="paint54_linear" x2="1" gradientUnits="userSpaceOnUse" gradientTransform="matrix(66.9068 0 0 36.4199 123385 138.875)"><stop offset="0" stop-color="#FF8600"/><stop offset="1" stop-color="#FFC400"/></linearGradient><path id="path0_fill" d="M9.175.217l1.775 25.43-2.663 1.335 1.237-1.827L5.769 6.848 2.975 20.88 0 21.77l1.454-1.335L2.034 0l7.14.217z"/><path id="path1_fill" d="M3.482 2.09S4.262-.442 5.294.068c1.032.51.987 4.045-.661 8.05a26.867 26.867 0 0 1-3.727 6.479L0 13.78a25.365 25.365 0 0 0 2.024-4.564c1.087-3.46 1.05-5.512 1.458-7.127z"/><path id="path2_fill" d="M7.057 12.107S3.135 14.25.541 13.212c-.716-.284-.548-1.198-.453-1.965.117-1.091.326-1.876 1.068-4.23C2.656 2.287 6.627-.702 7.664.141s.385.443-.14 3.725a54.305 54.305 0 0 0-.467 8.24z"/><path id="path3_fill" d="M11.457.386s.761-.887 1.431.027-1.023 3.45-4.401 6.222C5.108 9.407 0 10.436 0 10.436v-.918s3.994-1.645 5.665-3.104C8.437 4.063 10.33 1.628 11.457.386z"/><path id="path4_fill" d="M.82 1.05c1.844-2.555 4.72.066 2.718 2.4-.711.829-1.64 1.49-2.482 1.237C.1 4.398-.634 3.05.82 1.05z"/><path id="path5_fill" d="M.14.173c-.828.533 2.306 1.171 1.654 2.04-.942 1.247 1.037 0 .153 1.584-.353.634-1.625 1.379-.285.887 1.34-.493 2.364-1.84 1.671-3.233C2.7.182.861-.288.141.173z"/><path id="path6_fill" d="M13.291 15.03L0 7.513 13.291 0l13.292 7.513L13.29 15.03z"/><path id="path7_fill" d="M13.291 9.234L0 16.746V7.517L13.291 0v9.234z"/><path id="path8_fill" d="M0 9.234l13.291 7.512V7.517L0 0v9.234z"/><path id="path9_fill" d="M5.507 1.548a1.333 1.333 0 0 1-.806 1.1 4.383 4.383 0 0 1-3.895 0A1.333 1.333 0 0 1 0 1.548V0h5.507v1.548z"/><path id="path10_fill" d="M.805.456c-1.073.608-1.073 1.592 0 2.218a4.383 4.383 0 0 0 3.895 0c1.073-.608 1.073-1.592 0-2.218a4.383 4.383 0 0 0-3.895 0z"/><path id="path11_fill" d="M5.507 1.539A1.332 1.332 0 0 1 4.7 2.66a4.383 4.383 0 0 1-3.895 0A1.333 1.333 0 0 1 0 1.561V0h5.507v1.539z"/><path id="path12_fill" d="M5.516 1.548a1.333 1.333 0 0 1-.806 1.1 4.383 4.383 0 0 1-3.895 0A1.333 1.333 0 0 1 0 1.548V0h5.516v1.548z"/><path id="path13_fill" d="M7.74 1.756l1.73 24.375 1.512.332-2.668 1.335-3.98-19.416-2.631 13.19 1.272.221L0 22.685.68 0l7.06 1.756z"/><path id="path14_fill" d="M2.37.376S1.328-.43.468.32c-.86.75-.706 2.83 1.934 6.284a21.432 21.432 0 0 0 5.737 5.216l.195-.887a25.732 25.732 0 0 1-3.17-3.903C3.25 3.95 3.181 1.836 2.37.376z"/><path id="path15_fill" d="M1.366 11.85s3.922 3.473 6.516 2.435c.716-.284.548-1.197.453-1.964-.117-1.091-.326-1.876-1.068-4.231C5.767 3.362 1.52-.718.474.107-.572.932.365 1.646.89 4.923c.382 2.29.541 4.609.476 6.928z"/><path id="path16_fill" d="M1.747.201S1.077-.37.253.414C-.571 1.2.65 3.99 3.455 7.32c2.803 3.331 7.666 5.216 7.666 5.216l.154-.887S7.653 9.333 6.258 7.625C3.962 4.783 2.63 1.62 1.748.201z"/><path id="path17_fill" d="M3.397 1.05C1.554-1.505-1.322 1.116.68 3.45c.711.829 1.64 1.49 2.482 1.237.942-.289 1.675-1.641.235-3.637z"/><path id="path18_fill" d="M3.334.129c.83.532-.493 1.614.159 2.483.942 1.247-1.037 0-.154 1.584.353.634.267 1.822-1.073 1.33C.926 5.034-.451 3.876.142 1.85.554.492 2.619-.332 3.334.129z"/><path id="path19_fill" d="M13.291 15.034L0 7.517 13.291 0l13.292 7.517-13.292 7.517z"/><path id="path20_fill" d="M13.291 9.23L0 16.745V7.517L13.291 0v9.23z"/><path id="path21_fill" d="M0 9.23l13.291 7.516V7.517L0 0v9.23z"/><path id="path22_fill" d="M5.525 1.814c-.047.48-.356.897-.806 1.09a4.383 4.383 0 0 1-3.895 0A1.334 1.334 0 0 1 0 1.815V0h5.525v1.814z"/><path id="path23_fill" d="M5.507 1.814a1.333 1.333 0 0 1-.806 1.1 4.383 4.383 0 0 1-3.895 0A1.333 1.333 0 0 1 0 1.814V0h5.507v1.814z"/><path id="path24_fill" d="M13.291 15.03L0 7.517 13.291 0l13.296 7.517-13.296 7.513z"/><path id="path25_fill" d="M13.296 9.23L0 16.741v-9.23L13.296 0v9.23z"/><path id="path26_fill" d="M0 9.23l13.291 7.512v-9.23L0 0v9.23z"/><path id="path27_fill" d="M5.525 1.57a1.333 1.333 0 0 1-.806 1.1 4.383 4.383 0 0 1-3.895 0A1.333 1.333 0 0 1 0 1.57V0h5.525v1.57z"/><path id="path28_fill" d="M.805 2.674a4.383 4.383 0 0 0 3.895 0c1.073-.608 1.073-1.592 0-2.218a4.383 4.383 0 0 0-3.895 0c-1.073.608-1.073 1.592 0 2.218z"/><path id="path29_fill" d="M5.507 1.441a1.333 1.333 0 0 1-.806 1.1 4.383 4.383 0 0 1-3.895 0A1.333 1.333 0 0 1 0 1.441V0h5.507v1.441z"/><path id="path30_fill" d="M7.1 3.995c-9.467 5.34-9.467 13.982 0 19.33 7.607 4.294 19.044 5.133 28.154 2.516a28.596 28.596 0 0 0 6.13-2.495c9.468-5.339 9.468-13.981 0-19.33C31.916-1.33 16.569-1.34 7.1 3.997z"/><path id="path31_fill" d="M31.594 13.737l16.018 30.33.993 3.723c0 3.496-2.371 7.013-7.118 9.687-9.49 5.352-24.878 5.352-34.368 0C2.37 54.799 0 51.294 0 47.786l1.342-4.343 15.66-29.71V0h14.592v13.737z"/><path id="path32_fill" d="M42.122 20.47l-.85-3.36L32.18 0H9.938L1.02 16.813 0 20.47c0 3.058 2.058 6.077 6.17 8.397 8.224 4.636 21.562 4.636 29.786 0 4.112-2.32 6.166-5.356 6.166-8.397z"/><path id="path33_fill" d="M3.356 1.89c-4.475 2.511-4.475 6.588 0 9.105 4.474 2.516 11.691 2.512 16.148 0 4.456-2.513 4.474-6.59 0-9.106-4.475-2.517-11.692-2.52-16.148 0z"/><path id="path34_fill" d="M2.074 1.17c-2.765 1.56-2.765 4.085 0 5.645 2.765 1.56 7.248 1.56 10.014 0 2.765-1.56 2.765-4.085 0-5.645-2.766-1.56-7.253-1.56-10.014 0z"/><path id="path35_fill" d="M6.158 3.478c-8.21 4.636-8.21 12.155 0 16.791 6.617 3.732 16.555 4.461 24.457 2.185a24.845 24.845 0 0 0 5.329-2.185c8.224-4.635 8.224-12.155 0-16.79-8.224-4.636-21.549-4.64-29.786 0z"/><path id="path36_fill" d="M16.837 2.115c0 1.214-.823 2.429-2.465 3.355a9.934 9.934 0 0 1-2.13.874c-3.163.909-7.132.616-9.777-.874C.823 4.544 0 3.33 0 2.115V0h16.837v2.115z"/><path id="path37_fill" d="M1.342 2.726c2.645 1.49 6.618 1.783 9.781.874a9.93 9.93 0 0 0 2.13-.874c.49-.268.94-.597 1.342-.978V0c-.402.382-.853.71-1.342.979a9.93 9.93 0 0 1-2.13.874c-3.163.908-7.132.616-9.78-.874A6.438 6.438 0 0 1 0 0v1.748c.402.382.853.71 1.342.978z"/><path id="path38_fill" fill-rule="evenodd" d="M2.467 1.39c3.288-1.853 8.622-1.853 11.91 0 3.303 1.856 3.303 4.863 0 6.715a9.932 9.932 0 0 1-2.13.874c-3.163.909-7.136.616-9.78-.874-3.29-1.857-3.29-4.863 0-6.715zm8.89 6.308a7.6 7.6 0 0 0 1.633-.668c2.524-1.42 2.52-3.731 0-5.151-2.519-1.42-6.608-1.425-9.132 0-2.523 1.424-2.523 3.731 0 5.15 2.027 1.142 5.074 1.369 7.5.67z"/><path id="path39_fill" d="M59.134 16.678c0-4.029-2.55-8.061-7.665-11.22-11.45-7.083-30.927-7.27-42.811-.573C2.882 8.14 0 12.41 0 16.682V80.7c0 4.264 2.886 8.533 8.662 11.797 11.549 6.51 30.27 6.51 41.818 0 5.772-3.255 8.663-7.52 8.663-11.797V16.678h-.01z"/><path id="path40_fill" d="M52.798 35.723V0H0v35.723c0 3.81 2.577 7.62 7.736 10.525 10.291 5.815 27.035 5.815 37.348 0 5.137-2.905 7.714-6.715 7.714-10.525z"/><path id="path41_fill" d="M7.718 4.362c-10.29 5.815-10.29 15.24 0 21.055 10.291 5.815 27.035 5.815 37.348 0 10.314-5.816 10.291-15.24 0-21.055-10.291-5.816-27.034-5.816-37.348 0z"/><path id="path42_fill" d="M7.718 4.365c-10.29 5.815-10.29 15.24 0 21.055 8.3 4.68 20.748 5.593 30.668 2.74a31.148 31.148 0 0 0 6.68-2.74c10.291-5.815 10.291-15.24 0-21.055-10.291-5.816-27.034-5.824-37.348 0z"/><path id="path43_stroke" d="M-.36 1.555a1.33 1.33 0 0 0 .72 2.561l-.72-2.561zm7.913-.392a1.33 1.33 0 0 0-1.29-2.326l1.29 2.326zM.36 4.116a33.52 33.52 0 0 0 7.194-2.953l-1.29-2.326A30.86 30.86 0 0 1-.358 1.555l.718 2.561z"/><path id="path44_stroke" d="M-.36 1.56a1.33 1.33 0 1 0 .72 2.56l-.72-2.56zm7.914-.397a1.33 1.33 0 1 0-1.29-2.326l1.29 2.326zM.36 4.12a33.519 33.519 0 0 0 7.194-2.957l-1.29-2.326A30.859 30.859 0 0 1-.36 1.56l.72 2.56z"/><path id="path45_fill" fill-rule="evenodd" d="M3.973 28.046c0-1.49-.25-3.136-1.342-4.495C-2.304 17.408-.295 9.94 8.649 4.885c11.884-6.698 31.361-6.51 42.811.573 10.26 6.348 10.21 16.2-.112 22.514-8.922 5.453-22.636 6.764-33.867 3.933a34.645 34.645 0 0 0-8.103-.796H7.423c-1.906 0-3.45-.87-3.45-1.944v-1.119zM48.4 5.733c-5.034-2.836-11.723-4.4-18.838-4.4-7.119 0-13.808 1.564-18.815 4.387C2.95 10.116.765 16.857 5.316 22.537c1.02 1.267 1.516 2.866 1.516 4.88v1.097a.578.578 0 0 0 .35.477c.258.134.548.202.84.196H9.93a36.82 36.82 0 0 1 8.774.874c10.461 2.64 22.717 1.214 30.493-3.544 9.267-5.67 9.311-14.588.098-20.268l-.334-.194a44.37 44.37 0 0 0-.56-.322z"/><path id="path46_stroke" d="M1.235-.276a1.265 1.265 0 1 0-2.47.552l2.47-.552zm18.43 94.162a1.265 1.265 0 0 0 2.47-.551l-2.47.55zM-1.235.276l20.9 93.61 2.47-.551-20.9-93.61-2.47.55z"/><path id="path47_stroke" d="M1.235-.274a1.265 1.265 0 1 0-2.47.548l2.47-.548zm18.287 94.236a1.265 1.265 0 0 0 2.47-.547l-2.47.547zM-1.235.274l20.757 93.688 2.47-.547L1.235-.274l-2.47.548z"/><path id="path48_stroke" d="M8.8 1.102a1.265 1.265 0 0 0-1.242-2.204L8.8 1.102zm-9.422 2.41A1.265 1.265 0 0 0 .622 5.716L-.622 3.512zm8.18-4.614l-8.18 4.614L.622 5.716 8.8 1.102 7.558-1.102z"/><path id="path49_stroke" d="M8.804 1.102a1.265 1.265 0 0 0-1.241-2.204l1.241 2.204zM-.62 3.507A1.265 1.265 0 0 0 .621 5.712L-.621 3.507zm8.184-4.61l-8.184 4.61L.621 5.712l8.183-4.61-1.241-2.204z"/><path id="path50_stroke" d="M8.8 1.102a1.265 1.265 0 1 0-1.242-2.204L8.8 1.102zM-.62 3.507A1.265 1.265 0 0 0 .62 5.712L-.62 3.507zm8.18-4.609l-8.18 4.61L.62 5.711l8.18-4.61-1.243-2.204z"/><path id="path51_stroke" d="M8.805 1.102a1.265 1.265 0 0 0-1.243-2.204l1.243 2.204zm-9.426 2.41A1.265 1.265 0 1 0 .62 5.716L-.62 3.512zm8.183-4.614L-.62 3.512.62 5.716l8.184-4.614-1.243-2.204z"/><path id="path52_fill" d="M3.486 1.73L0 10.206l3.383 9.368-1.24.878 2.949.188-1.88-10.246 3.638-3.01 2.6 13.868-1.253.218 2.94.879L10.46 0 3.486 1.73z"/><path id="path53_fill" d="M12.761 2.12s1.1.698.658 1.72c-.443 1.023-2.48 1.538-6.618.219A21.508 21.508 0 0 1 0 .463L.796 0a26.279 26.279 0 0 0 4.73 1.647c3.54.795 5.584.188 7.235.472z"/><path id="path54_fill" d="M6.973 11.675s-3.875 3.42-6.439 2.398c-.707-.28-.541-1.18-.447-1.935.116-1.075.322-1.848 1.056-4.168C2.623 3.312 6.82-.708 7.854.105c1.034.813.108 1.516-.411 4.745a35.338 35.338 0 0 0-.47 6.825z"/><path id="path55_fill" d="M12.206.025s.841-.245 1.248.795c.408 1.04-.447 3.19-4.375 5.042C5.15 7.715 0 7.444 0 7.444l.246-.874s4.237-.612 6.202-1.582C9.683 3.402 10.815.943 12.206.025z"/><path id="path56_fill" d="M3.773 2.816C5.272.103 1.638-1.234.408 1.506c-.447.978-.622 2.066-.027 2.687.676.703 2.22.747 3.392-1.377z"/><path id="path57_fill" d="M5.137 2.025c-.116.952-2.125-.595-2.622.35-.715 1.358-.447-.9-1.498.563-.417.58-.824 1.695-.976.328C-.11 1.898.068.386 2.166.028 3.585-.217 5.24 1.203 5.137 2.025z"/><path id="path58_fill" d="M70.663 99.67l2.953 2.963 2.195-1.244c.565-.286.922-.999.922-2.022V44.547c0-1.82-1.134-3.933-2.548-4.72L4.027.294A1.696 1.696 0 0 0 2.442.12C2.294.19 0 1.489 0 1.489l.204 1.048 2.238.982"/><path id="path59_fill" d="M2.549 4.72C1.15 3.934 0 1.82 0 0l2.549 4.72z"/><path id="path60_fill" d="M2.549 61.667l70.17 39.532c1.398.788 2.549-.049 2.549-1.869V44.495c0-1.82-1.134-3.933-2.549-4.72L2.55.241C1.194-.418 0 .292 0 2.112v54.834c.017 1.82 1.151 3.95 2.549 4.72z"/><path id="path61_fill" d="M0 1.896C0 .2 1.22-.484 2.723.362l69.792 39.322c1.608 1.022 2.62 2.73 2.723 4.6v5.935L0 7.835v-5.94z"/><path id="path62_fill" d="M3.313 3.024c0 1.032-.743 1.45-1.656.933A3.56 3.56 0 0 1 0 1.155C0 .123.743-.295 1.657.222a3.56 3.56 0 0 1 1.656 2.802z"/><path id="path63_fill" d="M12.22 25.9c.42.297.972.35 1.445.141.798-.448.798-1.907 0-3.254L5.773 9.454l7.892-4.443c.798-.448.798-1.907 0-3.254C12.866.41 11.575-.315 10.776.132L0 6.196l10.776 18.212c.343.61.84 1.124 1.444 1.492z"/><path id="path64_fill" d="M2.056 25.9c.42.297.972.35 1.444.141l10.776-6.072L3.5 1.757C2.701.41 1.41-.315.612.132c-.799.448-.799 1.907 0 3.254L8.504 16.72.599 21.163c-.799.447-.799 1.906 0 3.253.347.609.849 1.12 1.457 1.484z"/><path id="path65_fill" d="M2.043 4.868l12.017 6.768c1.125.635 2.043.12 2.043-1.148A4.382 4.382 0 0 0 14.06 7.04L2.043.272C.917-.362 0 .152 0 1.42a4.382 4.382 0 0 0 2.043 3.448z"/><path id="path66_fill" d="M7.26 1.641l1.622 22.78 1.418.315-2.497 1.243L4.069 7.834 1.597 20.16l1.194.207L0 21.2.637 0 7.26 1.641z"/><path id="path67_fill" d="M3.067.196s.072 1.729 1.08 2.102c1.006.373-2.358 2.039-1.827 2.536.53.498 1.996 4.145 1.996 4.145l-.85.228S1.483 6.554.022 4.851C-.34 4.403 3.95-1.097 3.067.196z"/><path id="path68_fill" d="M.768 11.075s3.679 3.245 6.113 2.276c.67-.266.514-1.12.424-1.837-.11-1.02-.305-1.753-1.002-3.954C4.897 3.142 1.763-.67.781.1-.2.87-.149 1.559.344 4.61c.35 2.137.492 4.301.424 6.465z"/><path id="path69_fill" d="M0 0s1.015.767.629 1.753c-.387.987.82 2.371 4.362 4.443l-1.7 4.56.625.377s4.936-4.419 2.8-6.122C4.06 2.881 1.33.871 0 0z"/><path id="path70_fill" d="M3.186.981C1.458-1.406-1.24 1.043.638 3.224c.667.775 1.538 1.392 2.328 1.156.883-.27 1.575-1.513.22-3.399z"/><path id="path71_fill" d="M3.128.12c.777.498-.463 1.509.148 2.321.884 1.165-.972 0-.144 1.48.331.593.25 1.704-1.007 1.244C.868 4.705-.423 3.623.133 1.729.523.46 2.456-.311 3.128.12z"/><path id="path72_fill" d="M6.915 0L8.56 23.886l-.37.46a.43.43 0 0 1-.663.037l-.424-.414-3.237-15.92L1.28 23.965l-.294.294a.496.496 0 0 1-.79-.12L0 23.766.535 1.053 6.915 0z"/><path id="path73_fill" d="M0 14.014s3.547 1.93 5.883-.154c.641-.572.488-1.426.425-2.168a21.222 21.222 0 0 0-.99-4.725C3.95 2.802 3.194.025 2.251 0 1.308-.025.841 3.677.416 7.204.238 8.704 0 11.692 0 14.014z"/><path id="path74_fill" d="M4.763.012S-.674 7.373.07 8.85c.743 1.476 2.952 3.805 2.952 3.805l.514-1.053-1.53-3.183 2.757-5.517V0"/><path id="path75_fill" d="M0 .012S6.711 7.373 5.968 8.85c-.743 1.476-2.952 3.805-2.952 3.805L2.502 11.6 4.03 8.418 0 2.901V0"/><path id="path76_fill" d="M3.41 2.053c0-3.038-3.648-2.54-3.398.415.085 1.048.425 2.072 1.215 2.341.875.286 2.183-.377 2.183-2.756z"/><path id="path77_fill" d="M8.99.216l1.74 24.81-2.61 1.303 1.212-1.787L5.654 6.681 2.916 20.37 0 21.24l1.424-1.303L1.993 0 8.99.216z"/><path id="path78_fill" d="M3.386 2.04S4.149-.432 5.16.065c1.012.498.967 3.946-.648 7.853a26.183 26.183 0 0 1-3.652 6.322L0 13.445a24.686 24.686 0 0 0 1.957-4.452c1.065-3.367 1.03-5.379 1.429-6.954z"/><path id="path79_fill" d="M6.916 11.812S3.073 13.902.53 12.89c-.701-.277-.537-1.168-.444-1.917.115-1.065.32-1.83 1.047-4.128C2.603 2.233 6.494-.684 7.51.138c1.016.823.377.433-.137 3.635a52.753 52.753 0 0 0-.457 8.04z"/><path id="path80_fill" d="M11.227.377s.746-.865 1.402.026c.657.891-1.02 3.366-4.313 6.088C5.023 9.213 0 10.199 0 10.199v-.896s3.914-1.605 5.551-3.028c2.734-2.307 4.571-4.686 5.676-5.898z"/><path id="path81_fill" d="M.798 1.024c1.806-2.492 4.624.065 2.662 2.341-.697.81-1.606 1.454-2.432 1.207-.927-.28-1.646-1.596-.23-3.548z"/><path id="path82_fill" d="M0 1.298a6.667 6.667 0 0 1 1.775 1.328c-1.331 1.97 1.016 0 .15 1.545-.148.321-.39.592-.696.779 2.104.744 4.633-1.878 2.117-4.193C2.294-.195.612-.485 0 1.298z"/><path id="path83_fill" d="M2.367.038c1.992-.433 9.235 2.955 12.696 5.153 3.461 2.198-.976 4.037-3.848 3.172-2.028-.615-9.953-5.5-9.953-5.5C-1.21 1.223.379.505 2.367.038z"/><path id="path84_fill" d="M8.99.212l1.74 24.81-2.614 1.303 1.216-1.787L5.654 6.68 2.91 20.37 0 21.236l1.424-1.298L1.993 0 8.99.212z"/><path id="path85_fill" d="M3.386 2.04S4.149-.432 5.16.065c1.012.498.967 3.946-.648 7.853a26.183 26.183 0 0 1-3.652 6.322L0 13.445a24.693 24.693 0 0 0 1.984-4.448c1.03-3.37 1.03-5.383 1.402-6.958z"/><path id="path86_fill" d="M6.916 11.817S3.064 13.893.53 12.89c-.701-.277-.537-1.168-.444-1.917.115-1.065.32-1.83 1.047-4.128C2.603 2.233 6.494-.684 7.51.138c1.016.823.377.433-.137 3.635a52.753 52.753 0 0 0-.457 8.044z"/><path id="path87_fill" d="M11.21.377s.745-.865 1.402.026c.657.891-1.02 3.366-4.314 6.088C5.006 9.213 0 10.199 0 10.199v-.896s3.914-1.605 5.551-3.028C8.25 3.968 10.104 1.593 11.21.377z"/><path id="path88_fill" d="M.798 1.024c1.806-2.492 4.624.065 2.662 2.341-.697.81-1.606 1.454-2.432 1.207-.927-.264-1.646-1.579-.23-3.548z"/><path id="path89_fill" d="M.138.17c-.812.523 2.259 1.128 1.62 1.994-.924 1.216 1.016 0 .15 1.544-.346.62-1.593 1.346-.28.866 1.314-.48 2.317-1.796 1.638-3.154C2.641.178.84-.28.138.17z"/><path id="path90_fill" d="M55.959 5.322c0 4.033-2.734 8.061-8.197 11.137-10.925 6.153-28.64 6.153-39.57 0C2.729 13.387 0 9.355 0 5.322V0h55.959v5.322z"/><path id="path91_fill" d="M47.766 26.89c-10.925 6.152-28.64 6.152-39.57 0-10.93-6.154-10.926-16.123 0-22.275 10.925-6.153 28.64-6.153 39.57 0 10.93 6.152 10.926 16.126 0 22.274z"/><path id="path92_fill" d="M6.74 9.502c4.722-2.661 11.055-4.124 17.822-4.124 6.768 0 13.096 1.463 17.822 4.124 3.106 1.752 5.219 3.855 6.16 6.088.37-.854.562-1.77.567-2.696 0-3.215-2.387-6.33-6.723-8.77C37.667 1.462 31.334 0 24.567 0 17.799 0 11.449 1.467 6.74 4.128 2.39 6.568 0 9.662 0 12.894c.005.926.198 1.842.568 2.696.94-2.233 3.066-4.336 6.173-6.088z"/><path id="path93_fill" d="M4.118 9.874c0-2.77 2.06-5.456 5.796-7.56A25.635 25.635 0 0 1 15.683 0c-3.37.51-6.62 1.595-9.603 3.206C2.157 5.413 0 8.23 0 11.137l.235 1.649 3.883-2.912z"/><path id="path94_fill" d="M3.587.145a1.478 1.478 0 0 0-1.496.13 4.466 4.466 0 0 0-2.08 3.513c-.066.529.182 1.048.638 1.341l15.976 8.987 2.92-4.98L3.587.145z"/><path id="path95_fill" d="M5.68.236c-.599-.36-1.442-.32-2.374.203C1.355 1.679.126 3.753 0 6.021c0 1.051.386 1.782 1.012 2.107l30.433 17.255 4.642-7.91L5.68.237z"/><path id="path96_fill" d="M6.612 2.302c-.127 2.268-1.355 4.34-3.306 5.581C1.482 8.913 0 8.078 0 6.023.127 3.755 1.355 1.682 3.306.44c1.828-1.03 3.306-.195 3.306 1.86z"/><path id="path97_fill" d="M7.584 1.713l1.695 23.785 1.482.325-2.613 1.302L4.247 8.182 1.669 21.05l1.247.217L0 22.132.666 0l6.918 1.713z"/><path id="path98_fill" d="M2.322.367S1.302-.42.46.311c-.844.731-.693 2.76 1.894 6.114a20.967 20.967 0 0 0 5.623 5.106l.19-.866A25.128 25.128 0 0 1 5.06 6.858C3.183 3.859 3.117 1.795 2.322.368z"/><path id="path99_fill" d="M1.338 11.562s3.843 3.388 6.386 2.375c.701-.277.537-1.168.444-1.917-.115-1.064-.32-1.83-1.047-4.128C5.65 3.28 1.489-.7.464.104-.56.91.358 1.606.872 4.804c.374 2.233.53 4.496.466 6.758z"/><path id="path100_fill" d="M1.712.196S1.055-.362.247.404C-.56 1.17.642 3.896 3.39 7.158c2.747 3.263 7.513 5.071 7.513 5.071l.151-.865S7.503 9.105 6.136 7.44C3.882 4.67 2.577 1.58 1.712.196z"/><path id="path101_fill" d="M3.329 1.024C1.523-1.468-1.295 1.09.666 3.365c.697.81 1.607 1.454 2.432 1.207.923-.28 1.642-1.596.231-3.548z"/><path id="path102_fill" d="M3.266.12c.813.519-.483 1.575.156 2.423.923 1.215-1.016 0-.151 1.544.346.619.262 1.779-1.052 1.298C.906 4.905-.448 3.78.142 1.803.542.47 2.565-.313 3.266.12z"/><path id="path103_fill" d="M7.216 0l1.717 24.936-.386.471a.45.45 0 0 1-.692.039l-.444-.432-3.382-16.62-2.693 16.624-.306.307a.518.518 0 0 1-.826-.125L0 24.81.56 1.1 7.215 0z"/><path id="path104_fill" d="M0 14.586s3.705 2.016 6.146-.147c.67-.597.51-1.489.444-2.263a22.141 22.141 0 0 0-1.02-4.902C4.14 2.925 3.35.026 2.364 0 1.38-.026.88 3.82.435 7.516.249 9.052 0 12.172 0 14.586z"/><path id="path105_fill" d="M6.235.009S3.222 6.109 2.219 8.8A673.92 673.92 0 0 0 0 14.993l1.158.16 2.663-5.067L6.257 4.76V0"/><path id="path106_fill" d="M0 .013s4.438 6.98 5.56 9.121a641.429 641.429 0 0 1 2.991 5.802l-.914.433-5.511-8.06L0 3.028V0"/><path id="path107_fill" d="M3.92 2.143C3.92-1.028.11-.509.37 2.576.46 3.671-1.12 7.53 1.64 7.768c4.819.446 2.28-3.141 2.28-5.625z"/></defs></svg>
